<svg version="1.1" id="Layer_1" xmlns="http://www.w3.org/2000/svg" xmlns:xlink="http://www.w3.org/1999/xlink" x="0px" y="0px"
	 width="100%" viewBox="0 0 1024 1024" enable-background="new 0 0 1024 1024" xml:space="preserve">
<path fill="#0E0D11" opacity="1.000000" stroke="none" 
	d="
M501.000000,1025.000000 
	C334.000000,1025.000000 167.500000,1025.000000 1.000000,1025.000000 
	C1.000000,683.666687 1.000000,342.333344 1.000000,1.000000 
	C342.333344,1.000000 683.666687,1.000000 1025.000000,1.000000 
	C1025.000000,342.333344 1025.000000,683.666687 1025.000000,1025.000000 
	C850.500000,1025.000000 676.000000,1025.000000 501.000000,1025.000000 
M544.947205,539.970947 
	C558.560120,531.511536 570.086548,520.975159 578.485046,506.411560 
	C581.335938,501.678680 584.186768,496.945801 587.552856,491.808960 
	C587.764648,491.200470 587.976501,490.591980 588.577332,489.705688 
	C588.727722,489.259918 588.878174,488.814148 589.579468,487.897186 
	C591.733765,483.589569 593.741394,479.200562 596.075745,474.992859 
	C599.854309,468.182281 603.298889,461.086517 607.892212,454.853851 
	C613.326904,447.479584 620.726624,446.879425 627.943665,452.487762 
	C631.728027,455.428589 634.915039,459.125641 638.507690,462.328766 
	C642.942566,466.282745 647.518616,470.078217 652.488892,474.470093 
	C665.449036,481.887360 678.003967,480.833130 688.472412,470.245880 
	C694.729675,463.917572 699.864319,456.448730 705.250793,449.302002 
	C708.257568,445.312561 707.888367,440.968231 704.699280,439.190125 
	C700.460632,436.826843 697.885803,439.541260 695.556335,442.628754 
	C691.851379,447.539398 688.486755,452.764069 684.347534,457.277527 
	C676.457642,465.880737 669.271423,470.099579 656.980286,462.187897 
	C656.749390,461.970825 656.478027,461.890656 655.768005,461.620361 
	C655.509521,461.394684 655.250977,461.168976 654.758423,460.322235 
	C649.275696,454.973572 644.038757,449.341492 638.262085,444.331818 
	C623.575378,431.595032 606.677307,433.480896 595.835754,449.683289 
	C589.668640,458.899780 585.055847,469.156311 579.199036,479.329803 
	C575.806030,485.006348 572.733337,490.911072 568.907654,496.279266 
	C566.350464,499.867676 562.060303,500.538513 558.892639,497.202850 
	C555.208801,493.323608 551.490845,489.040222 549.322021,484.239075 
	C542.326294,468.752472 535.906189,452.999817 529.523315,437.244690 
	C525.882202,428.257172 522.976440,418.970703 519.303406,409.997375 
	C516.669617,403.563019 513.313049,397.424530 510.068146,390.451385 
	C506.551758,386.095734 503.435242,381.323395 499.428741,377.478455 
	C492.802612,371.119446 483.136719,370.080536 475.574554,374.678406 
	C471.951477,376.881256 468.909882,380.040466 465.195221,382.195374 
	C460.769257,377.522797 456.343262,372.850250 451.550964,367.607483 
	C449.127838,365.141479 446.655182,362.721893 444.292847,360.198944 
	C440.468872,356.115082 436.717407,351.963348 432.582275,347.263885 
	C432.406525,347.122986 432.230743,346.982056 431.959473,346.313019 
	C431.649475,346.227783 431.339508,346.142548 430.394684,345.759186 
	C425.427979,340.053131 420.610596,334.208344 415.464355,328.669098 
	C403.691772,315.997314 391.628723,303.593323 379.968079,290.820862 
	C376.390503,286.902222 372.547455,285.367950 367.330719,285.379608 
	C337.334595,285.446533 307.337921,285.268829 276.930511,285.296967 
	C277.077301,285.774841 277.224121,286.252716 277.936554,287.212097 
	C283.520782,292.917572 289.120026,298.608459 294.686646,304.331116 
	C317.978790,328.276306 341.261139,352.231079 364.820404,376.832672 
	C374.929108,386.867371 385.037842,396.902069 395.388519,407.544891 
	C400.961945,412.781677 406.278076,418.332458 412.180176,423.168030 
	C418.239258,428.132263 424.538879,427.182007 429.657104,421.520020 
	C434.560150,416.096100 439.409058,410.606323 444.610474,405.478943 
	C446.287628,403.825684 449.007568,403.230255 451.250092,402.868042 
	C446.107300,411.798645 441.092621,420.806122 435.791321,429.641632 
	C428.089447,442.478180 420.309509,455.286957 408.486053,464.957184 
	C403.062927,457.412964 398.396057,449.147766 392.046204,442.487030 
	C381.513885,431.439056 367.885101,431.488190 356.333221,441.511169 
	C353.213165,444.218262 350.319214,447.291321 347.804901,450.567413 
	C343.652985,455.977264 339.835480,461.648682 335.981812,467.281555 
	C326.952942,480.478760 314.797150,486.001007 298.902466,482.711304 
	C295.434753,481.993652 291.900024,481.600006 288.396179,481.057098 
	C290.271942,483.050964 292.398865,484.285339 294.691956,484.905365 
	C303.196411,487.204712 311.670135,489.754669 320.311066,491.385742 
	C342.249634,495.526978 364.238525,496.627563 386.841431,490.609009 
	C392.170868,488.604523 397.500305,486.600037 403.118500,485.324890 
	C408.095154,493.541962 413.071808,501.759064 418.080780,510.673645 
	C423.513885,517.355103 428.534058,524.433960 434.484955,530.617126 
	C441.876892,538.297424 450.427643,544.652100 461.184753,548.771057 
	C473.062653,554.006165 485.498779,555.781067 499.150543,554.745483 
	C501.618286,554.493286 504.094849,554.306946 506.552307,553.978027 
	C520.146545,552.158081 533.054871,548.439209 544.947205,539.970947 
M640.515564,537.468445 
	C630.614502,528.128357 620.733459,518.766846 610.805603,509.455322 
	C603.641113,502.735626 599.008728,503.465515 592.586853,510.879028 
	C584.671143,520.016907 576.167786,528.649353 567.820374,537.406799 
	C565.999634,539.316956 563.625671,540.692261 561.748108,542.557190 
	C557.440918,546.835388 555.402039,555.757812 558.298462,558.829895 
	C566.026611,567.026611 574.010010,574.982544 582.228455,583.617676 
	C598.772461,600.776184 615.316467,617.934692 632.150330,635.699341 
	C642.248047,646.312500 652.279053,656.990356 662.473450,667.509827 
	C667.135437,672.320374 672.650757,674.927612 679.752747,674.873962 
	C710.388489,674.642395 741.027161,674.801331 771.664734,674.796326 
	C772.517212,674.796143 773.369751,674.549011 775.094360,674.281982 
	C743.721375,642.282166 712.953613,610.899719 681.916443,578.938538 
	C668.188232,565.317627 654.460083,551.696777 640.515564,537.468445 
M629.363647,309.078064 
	C599.608093,341.197235 569.852539,373.316437 540.509521,404.990326 
	C546.826843,408.464996 552.447449,412.034821 558.454224,414.750549 
	C567.939087,419.038757 577.365112,424.239075 587.387268,426.384796 
	C605.181335,430.194519 619.897522,423.380463 631.567566,408.601227 
	C670.886780,367.850708 710.205994,327.100189 750.374329,285.469604 
	C748.247192,285.361420 747.639465,285.302917 747.031921,285.303589 
	C716.742371,285.337097 686.451904,285.286987 656.164673,285.569824 
	C653.536133,285.594360 650.345520,287.227478 648.417175,289.128723 
	C642.028687,295.427551 636.098572,302.191193 629.363647,309.078064 
M369.286041,553.696533 
	C367.392212,555.557739 365.464020,557.385437 363.609650,559.285156 
	C327.338074,596.443909 291.072571,633.608643 254.824051,670.789978 
	C253.866516,671.772156 253.113647,672.953979 251.838760,674.590088 
	C253.626831,674.711243 254.578033,674.832031 255.529236,674.832031 
	C285.994904,674.830688 316.460602,674.796387 346.926208,674.823730 
	C353.417725,674.829529 358.416473,671.791687 362.667328,667.320190 
	C370.233429,659.361450 377.671356,651.280762 385.776733,642.958130 
	C398.438812,629.510254 411.109161,616.070129 423.760590,602.612305 
	C436.389496,589.178345 448.999512,575.726685 461.998413,561.877319 
	C444.640472,552.010620 428.730011,542.651733 416.190521,528.688721 
	C415.216583,527.604248 413.886658,526.574341 412.525513,526.150391 
	C407.707855,524.649780 402.259186,521.796753 397.935699,525.726135 
	C388.241180,534.536865 379.180145,544.044617 369.286041,553.696533 
M709.958496,427.953186 
	C711.041260,430.363037 711.778320,433.015656 713.269531,435.138550 
	C718.336731,442.352173 728.091187,443.820923 735.343933,438.714935 
	C742.657227,433.566345 744.528137,423.961273 739.638245,416.668213 
	C735.201233,410.050720 728.126160,407.404144 721.031799,409.708099 
	C713.576233,412.129333 709.705688,418.168152 709.958496,427.953186 
z"/>
<path fill="#386CCE" opacity="1.000000" stroke="none" 
	d="
M385.162903,643.251038 
	C377.671356,651.280762 370.233429,659.361450 362.667328,667.320190 
	C358.416473,671.791687 353.417725,674.829529 346.926208,674.823730 
	C316.460602,674.796387 285.994904,674.830688 255.529236,674.832031 
	C254.578033,674.832031 253.626831,674.711243 251.838760,674.590088 
	C253.113647,672.953979 253.866516,671.772156 254.824051,670.789978 
	C291.072571,633.608643 327.338074,596.443909 363.609650,559.285156 
	C365.464020,557.385437 367.392212,555.557739 369.628540,553.885986 
	C375.755219,563.726685 378.190552,574.119873 377.038757,585.353455 
	C376.907227,586.636353 377.498718,587.977051 377.527863,589.295898 
	C377.604584,592.770447 377.560669,596.247681 377.556366,599.723877 
	C377.552063,603.189575 377.125854,606.713135 377.603119,610.110352 
	C379.159912,621.192200 385.573303,631.184509 385.054626,642.764465 
	C385.047424,642.924744 385.124908,643.088745 385.162903,643.251038 
z"/>
<path fill="#F66D6E" opacity="1.000000" stroke="none" 
	d="
M629.992615,308.776489 
	C636.098572,302.191193 642.028687,295.427551 648.417175,289.128723 
	C650.345520,287.227478 653.536133,285.594360 656.164673,285.569824 
	C686.451904,285.286987 716.742371,285.337097 747.031921,285.303589 
	C747.639465,285.302917 748.247192,285.361420 750.374329,285.469604 
	C710.205994,327.100189 670.886780,367.850708 631.126831,408.394348 
	C630.457275,406.221649 629.990417,404.249817 630.040161,402.291107 
	C630.267700,393.337860 630.764099,384.390472 630.921265,375.436737 
	C631.047852,368.226715 630.537476,367.932098 623.699219,369.370605 
	C623.452820,369.422455 623.132690,369.123810 622.655151,368.897675 
	C622.700256,368.326294 622.731079,367.691650 622.802856,367.061615 
	C623.904968,357.393524 624.862305,347.705688 626.168701,338.065216 
	C627.122314,331.027985 628.641785,324.068909 629.693909,317.042786 
	C630.099670,314.333191 629.910706,311.534576 629.992615,308.776489 
z"/>
<path fill="#6FD4EE" opacity="1.000000" stroke="none" 
	d="
M277.341431,285.174072 
	C307.337921,285.268829 337.334595,285.446533 367.330719,285.379608 
	C372.547455,285.367950 376.390503,286.902222 379.968079,290.820862 
	C391.628723,303.593323 403.691772,315.997314 415.464355,328.669098 
	C420.610596,334.208344 425.427979,340.053131 430.828278,346.104492 
	C431.462433,346.709595 431.726807,346.840057 432.054962,346.841156 
	C432.230743,346.982056 432.406525,347.122986 432.347778,347.673126 
	C427.144684,348.819092 422.195740,349.822205 417.199951,350.190979 
	C414.284180,350.406158 410.825989,348.474701 408.420502,349.467773 
	C399.754578,353.045471 391.146545,356.971863 383.088165,361.733765 
	C378.335754,364.542084 374.758362,369.289062 370.451172,372.925659 
	C368.767120,374.347534 366.531494,375.116150 364.547089,376.182312 
	C341.261139,352.231079 317.978790,328.276306 294.686646,304.331116 
	C289.120026,298.608459 283.520782,292.917572 277.683655,286.715759 
	C277.400970,285.870941 277.371185,285.522522 277.341431,285.174072 
z"/>
<path fill="#FCBA5C" opacity="1.000000" stroke="none" 
	d="
M682.185913,579.517212 
	C712.953613,610.899719 743.721375,642.282166 775.094360,674.281982 
	C773.369751,674.549011 772.517212,674.796143 771.664734,674.796326 
	C741.027161,674.801331 710.388489,674.642395 679.752747,674.873962 
	C672.650757,674.927612 667.135437,672.320374 662.473450,667.509827 
	C652.279053,656.990356 642.248047,646.312500 632.270752,635.129272 
	C633.430115,634.070862 634.422729,633.342834 635.515259,633.132080 
	C644.299744,631.437195 651.579163,627.150635 657.735168,620.727539 
	C661.962463,616.316833 666.511841,612.207275 670.614746,607.688538 
	C672.559631,605.546448 674.255798,602.933594 675.264954,600.234924 
	C677.813660,593.419434 679.908936,586.434387 682.185913,579.517212 
z"/>
<path fill="#3A4692" opacity="1.000000" stroke="none" 
	d="
M385.469788,643.104614 
	C385.124908,643.088745 385.047424,642.924744 385.054626,642.764465 
	C385.573303,631.184509 379.159912,621.192200 377.603119,610.110352 
	C377.125854,606.713135 377.552063,603.189575 377.556366,599.723877 
	C377.560669,596.247681 377.604584,592.770447 377.527863,589.295898 
	C377.498718,587.977051 376.907227,586.636353 377.038757,585.353455 
	C378.190552,574.119873 375.755219,563.726685 369.916107,553.671997 
	C379.180145,544.044617 388.241180,534.536865 397.935699,525.726135 
	C402.259186,521.796753 407.707855,524.649780 412.525513,526.150391 
	C413.886658,526.574341 415.216583,527.604248 416.190521,528.688721 
	C428.730011,542.651733 444.640472,552.010620 461.998413,561.877319 
	C448.999512,575.726685 436.389496,589.178345 423.760590,602.612305 
	C411.109161,616.070129 398.438812,629.510254 385.469788,643.104614 
z"/>
<path fill="#B83665" opacity="1.000000" stroke="none" 
	d="
M629.678101,308.927307 
	C629.910706,311.534576 630.099670,314.333191 629.693909,317.042786 
	C628.641785,324.068909 627.122314,331.027985 626.168701,338.065216 
	C624.862305,347.705688 623.904968,357.393524 622.802856,367.061615 
	C622.731079,367.691650 622.700256,368.326294 622.655151,368.897675 
	C623.132690,369.123810 623.452820,369.422455 623.699219,369.370605 
	C630.537476,367.932098 631.047852,368.226715 630.921265,375.436737 
	C630.764099,384.390472 630.267700,393.337860 630.040161,402.291107 
	C629.990417,404.249817 630.457275,406.221649 630.842590,408.570038 
	C619.897522,423.380463 605.181335,430.194519 587.387268,426.384796 
	C577.365112,424.239075 567.939087,419.038757 558.454224,414.750549 
	C552.447449,412.034821 546.826843,408.464996 540.509521,404.990326 
	C569.852539,373.316437 599.608093,341.197235 629.678101,308.927307 
z"/>
<path fill="#F66D6E" opacity="1.000000" stroke="none" 
	d="
M682.051147,579.227905 
	C679.908936,586.434387 677.813660,593.419434 675.264954,600.234924 
	C674.255798,602.933594 672.559631,605.546448 670.614746,607.688538 
	C666.511841,612.207275 661.962463,616.316833 657.735168,620.727539 
	C651.579163,627.150635 644.299744,631.437195 635.515259,633.132080 
	C634.422729,633.342834 633.430115,634.070862 632.125854,634.826294 
	C615.316467,617.934692 598.772461,600.776184 582.290649,583.046021 
	C583.204834,581.999573 584.002991,581.321472 584.916626,581.079956 
	C602.523132,576.424927 616.316467,565.801453 628.553162,552.913147 
	C632.947266,548.285034 636.691162,543.039551 640.731873,538.075867 
	C654.460083,551.696777 668.188232,565.317627 682.051147,579.227905 
z"/>
<path fill="#B83665" opacity="1.000000" stroke="none" 
	d="
M640.623718,537.772156 
	C636.691162,543.039551 632.947266,548.285034 628.553162,552.913147 
	C616.316467,565.801453 602.523132,576.424927 584.916626,581.079956 
	C584.002991,581.321472 583.204834,581.999573 582.122437,582.754333 
	C574.010010,574.982544 566.026611,567.026611 558.298462,558.829895 
	C555.402039,555.757812 557.440918,546.835388 561.748108,542.557190 
	C563.625671,540.692261 565.999634,539.316956 567.820374,537.406799 
	C576.167786,528.649353 584.671143,520.016907 592.586853,510.879028 
	C599.008728,503.465515 603.641113,502.735626 610.805603,509.455322 
	C620.733459,518.766846 630.614502,528.128357 640.623718,537.772156 
z"/>
<path fill="#386CCE" opacity="1.000000" stroke="none" 
	d="
M364.683746,376.507507 
	C366.531494,375.116150 368.767120,374.347534 370.451172,372.925659 
	C374.758362,369.289062 378.335754,364.542084 383.088165,361.733765 
	C391.146545,356.971863 399.754578,353.045471 408.420502,349.467773 
	C410.825989,348.474701 414.284180,350.406158 417.199951,350.190979 
	C422.195740,349.822205 427.144684,348.819092 432.524292,347.961304 
	C436.717407,351.963348 440.468872,356.115082 444.292847,360.198944 
	C446.655182,362.721893 449.127838,365.141479 451.540771,368.153931 
	C450.736084,369.279816 449.971375,369.906219 449.142731,370.431763 
	C437.600372,377.752167 425.923920,384.870483 414.547729,392.440125 
	C407.836639,396.905609 401.597778,402.080780 395.146545,406.936768 
	C385.037842,396.902069 374.929108,386.867371 364.683746,376.507507 
z"/>
<path fill="#9DD2A9" opacity="1.000000" stroke="none" 
	d="
M402.829712,484.595520 
	C397.500305,486.600037 392.170868,488.604523 386.551636,490.325745 
	C386.528046,488.709686 387.120331,487.347656 387.003693,486.049286 
	C386.511322,480.567444 381.916718,483.077148 379.387268,481.967926 
	C385.630096,479.237213 391.560547,476.685394 397.808563,474.041473 
	C401.763184,471.123138 405.400238,468.296906 409.037354,465.470703 
	C420.309509,455.286957 428.089447,442.478180 435.791321,429.641632 
	C441.092621,420.806122 446.107300,411.798645 451.212372,402.461609 
	C451.174652,402.055145 451.078125,402.129822 451.382935,402.124512 
	C451.822632,401.751984 451.957581,401.384796 452.056580,401.017731 
	C452.020691,401.017883 452.022247,401.089661 452.323608,400.932190 
	C452.938049,400.172394 453.251099,399.570038 453.824646,398.794189 
	C457.925110,393.335999 461.765015,388.051270 465.604919,382.766541 
	C468.909882,380.040466 471.951477,376.881256 475.574554,374.678406 
	C483.136719,370.080536 492.802612,371.119446 499.428741,377.478455 
	C503.435242,381.323395 506.551758,386.095734 509.815735,390.844360 
	C502.511993,395.334900 501.598145,397.182983 502.838623,404.783966 
	C502.889526,405.095825 502.804199,405.429871 502.516296,405.481445 
	C499.449097,400.506134 497.105713,395.442047 493.745209,391.179932 
	C487.924774,383.797821 481.638367,383.794281 476.252106,391.548523 
	C468.206146,403.131744 460.630341,415.066803 453.349579,427.150452 
	C442.262512,445.551270 431.638702,464.237579 414.154785,478.039612 
	C410.167969,480.278839 406.498840,482.437164 402.829712,484.595520 
z"/>
<path fill="#6FD4EE" opacity="1.000000" stroke="none" 
	d="
M379.074860,482.146851 
	C381.916718,483.077148 386.511322,480.567444 387.003693,486.049286 
	C387.120331,487.347656 386.528046,488.709686 386.180389,490.330383 
	C364.238525,496.627563 342.249634,495.526978 320.311066,491.385742 
	C311.670135,489.754669 303.196411,487.204712 294.691956,484.905365 
	C292.398865,484.285339 290.271942,483.050964 288.396179,481.057098 
	C291.900024,481.600006 295.434753,481.993652 298.902466,482.711304 
	C314.797150,486.001007 326.952942,480.478760 335.981812,467.281555 
	C339.835480,461.648682 343.652985,455.977264 347.804901,450.567413 
	C350.319214,447.291321 353.213165,444.218262 356.333221,441.511169 
	C367.885101,431.488190 381.513885,431.439056 392.046204,442.487030 
	C398.396057,449.147766 403.062927,457.412964 408.761688,465.213928 
	C405.400238,468.296906 401.763184,471.123138 397.674622,473.684875 
	C392.494751,466.408630 388.362488,458.882202 382.875122,452.525604 
	C377.044922,445.771759 370.082825,446.398682 363.911560,452.879486 
	C362.192413,454.684845 360.553070,456.577179 358.998596,458.526489 
	C351.429047,468.018738 345.948059,479.335297 333.733276,485.827759 
	C349.882965,486.659546 364.586639,485.668732 379.074860,482.146851 
z"/>
<path fill="#FCBA5C" opacity="1.000000" stroke="none" 
	d="
M502.782288,405.753601 
	C502.804199,405.429871 502.889526,405.095825 502.838623,404.783966 
	C501.598145,397.182983 502.511993,395.334900 509.921112,391.195679 
	C513.313049,397.424530 516.669617,403.563019 519.303406,409.997375 
	C522.976440,418.970703 525.882202,428.257172 529.523315,437.244690 
	C535.906189,452.999817 542.326294,468.752472 549.322021,484.239075 
	C551.490845,489.040222 555.208801,493.323608 558.892639,497.202850 
	C562.060303,500.538513 566.350464,499.867676 568.907654,496.279266 
	C572.733337,490.911072 575.806030,485.006348 579.840088,479.181641 
	C583.330322,482.145081 586.179443,485.256714 589.028564,488.368378 
	C588.878174,488.814148 588.727722,489.259918 588.124023,490.050293 
	C587.459656,491.000916 587.248657,491.606934 587.037659,492.212952 
	C584.186768,496.945801 581.335938,501.678680 577.851379,506.650421 
	C571.213318,508.498260 565.208862,510.107239 558.941528,511.478088 
	C557.464417,510.812286 556.189270,510.507080 555.045898,509.937408 
	C546.589539,505.724396 541.793457,498.146301 537.386841,490.313019 
	C534.158020,484.573425 531.264832,478.645081 528.156128,472.422577 
	C525.562073,465.520477 523.034058,458.996643 520.545776,452.095795 
	C514.651062,436.397095 508.716675,421.075348 502.782288,405.753601 
z"/>
<path fill="#3A4692" opacity="1.000000" stroke="none" 
	d="
M465.400085,382.480957 
	C461.765015,388.051270 457.925110,393.335999 453.503174,398.961792 
	C452.621521,399.898468 452.321869,400.494049 452.022217,401.089661 
	C452.022247,401.089661 452.020691,401.017883 451.738647,401.024353 
	C451.330444,401.397156 451.204285,401.763489 451.078125,402.129822 
	C451.078125,402.129822 451.174652,402.055145 451.212585,402.103027 
	C449.007568,403.230255 446.287628,403.825684 444.610474,405.478943 
	C439.409058,410.606323 434.560150,416.096100 429.657104,421.520020 
	C424.538879,427.182007 418.239258,428.132263 412.180176,423.168030 
	C406.278076,418.332458 400.961945,412.781677 395.267517,407.240845 
	C401.597778,402.080780 407.836639,396.905609 414.547729,392.440125 
	C425.923920,384.870483 437.600372,377.752167 449.142731,370.431763 
	C449.971375,369.906219 450.736084,369.279816 451.723907,368.439026 
	C456.343262,372.850250 460.769257,377.522797 465.400085,382.480957 
z"/>
<path fill="#F66D6E" opacity="1.000000" stroke="none" 
	d="
M589.304016,488.132782 
	C586.179443,485.256714 583.330322,482.145081 580.112183,478.988953 
	C585.055847,469.156311 589.668640,458.899780 595.835754,449.683289 
	C606.677307,433.480896 623.575378,431.595032 638.262085,444.331818 
	C644.038757,449.341492 649.275696,454.973572 654.930176,460.930481 
	C655.456665,461.674988 655.811401,461.811218 656.166199,461.947418 
	C656.478027,461.890656 656.749390,461.970825 657.080200,462.757568 
	C655.464661,466.865570 653.749207,470.403870 652.033691,473.942200 
	C647.518616,470.078217 642.942566,466.282745 638.507690,462.328766 
	C634.915039,459.125641 631.728027,455.428589 627.943665,452.487762 
	C620.726624,446.879425 613.326904,447.479584 607.892212,454.853851 
	C603.298889,461.086517 599.854309,468.182281 596.075745,474.992859 
	C593.741394,479.200562 591.733765,483.589569 589.304016,488.132782 
z"/>
<path fill="#B83665" opacity="1.000000" stroke="none" 
	d="
M652.261292,474.206146 
	C653.749207,470.403870 655.464661,466.865570 657.230347,462.916870 
	C669.271423,470.099579 676.457642,465.880737 684.347534,457.277527 
	C688.486755,452.764069 691.851379,447.539398 695.556335,442.628754 
	C697.885803,439.541260 700.460632,436.826843 704.699280,439.190125 
	C707.888367,440.968231 708.257568,445.312561 705.250793,449.302002 
	C699.864319,456.448730 694.729675,463.917572 688.472412,470.245880 
	C678.003967,480.833130 665.449036,481.887360 652.261292,474.206146 
z"/>
<path fill="#9DD2A9" opacity="1.000000" stroke="none" 
	d="
M709.916321,427.534668 
	C709.705688,418.168152 713.576233,412.129333 721.031799,409.708099 
	C728.126160,407.404144 735.201233,410.050720 739.638245,416.668213 
	C744.528137,423.961273 742.657227,433.566345 735.343933,438.714935 
	C728.091187,443.820923 718.336731,442.352173 713.269531,435.138550 
	C711.778320,433.015656 711.041260,430.363037 709.916321,427.534668 
z"/>
<path fill="#386CCE" opacity="1.000000" stroke="none" 
	d="
M460.704620,548.232544 
	C450.427643,544.652100 441.876892,538.297424 434.484955,530.617126 
	C428.534058,524.433960 423.513885,517.355103 418.149750,509.982208 
	C419.439087,503.907349 424.746918,504.109711 428.591675,502.062500 
	C435.362762,510.021912 441.211456,518.500793 448.537750,525.413757 
	C453.613464,530.203064 460.725861,532.833984 466.841064,536.765259 
	C464.737457,540.811707 462.721039,544.522156 460.704620,548.232544 
z"/>
<path fill="#3A4692" opacity="1.000000" stroke="none" 
	d="
M460.944702,548.501831 
	C462.721039,544.522156 464.737457,540.811707 467.155762,536.541138 
	C471.638885,534.274109 476.117676,533.153137 479.705292,530.718811 
	C484.690216,527.336426 489.006805,522.969116 493.864258,519.268555 
	C496.413849,521.865540 498.708710,524.217407 500.997437,526.890259 
	C496.415649,532.272156 491.839996,537.333069 486.517334,543.220215 
	C490.857788,543.220215 494.561523,543.220215 498.125092,543.591309 
	C498.117981,547.565674 498.250977,551.168884 498.383972,554.772156 
	C485.498779,555.781067 473.062653,554.006165 460.944702,548.501831 
z"/>
<path fill="#B83665" opacity="1.000000" stroke="none" 
	d="
M498.767273,554.758789 
	C498.250977,551.168884 498.117981,547.565674 498.548126,543.573669 
	C505.925049,541.950500 512.943359,541.364258 519.494446,539.297485 
	C525.914673,537.271912 531.859375,533.739441 538.171509,531.185425 
	C540.322083,534.399292 542.314026,537.296082 544.305908,540.192871 
	C533.054871,548.439209 520.146545,552.158081 506.552307,553.978027 
	C504.094849,554.306946 501.618286,554.493286 498.767273,554.758789 
z"/>
<path fill="#F66D6E" opacity="1.000000" stroke="none" 
	d="
M544.626587,540.081909 
	C542.314026,537.296082 540.322083,534.399292 538.395508,530.952393 
	C545.375305,524.173584 552.289917,517.944885 559.204468,511.716248 
	C565.208862,510.107239 571.213318,508.498260 577.590149,506.847107 
	C570.086548,520.975159 558.560120,531.511536 544.626587,540.081909 
z"/>
<path fill="#6FD4EE" opacity="1.000000" stroke="none" 
	d="
M428.299805,501.913818 
	C424.746918,504.109711 419.439087,503.907349 418.133606,509.633484 
	C413.071808,501.759064 408.095154,493.541962 402.974121,484.960205 
	C406.498840,482.437164 410.167969,480.278839 414.297760,478.377899 
	C419.272186,486.394806 423.786011,494.154327 428.299805,501.913818 
z"/>
<path fill="#3A4692" opacity="1.000000" stroke="none" 
	d="
M277.135986,285.235535 
	C277.371185,285.522522 277.400970,285.870941 277.400818,286.474976 
	C277.224121,286.252716 277.077301,285.774841 277.135986,285.235535 
z"/>
<path fill="#F66D6E" opacity="1.000000" stroke="none" 
	d="
M587.295288,492.010956 
	C587.248657,491.606934 587.459656,491.000916 587.929443,490.189178 
	C587.976501,490.591980 587.764648,491.200470 587.295288,492.010956 
z"/>
<path fill="#B83665" opacity="1.000000" stroke="none" 
	d="
M655.967102,461.783875 
	C655.811401,461.811218 655.456665,461.674988 655.047119,461.241028 
	C655.250977,461.168976 655.509521,461.394684 655.967102,461.783875 
z"/>
<path fill="#386CCE" opacity="1.000000" stroke="none" 
	d="
M432.007202,346.577087 
	C431.726807,346.840057 431.462433,346.709595 431.145691,346.253540 
	C431.339508,346.142548 431.649475,346.227783 432.007202,346.577087 
z"/>
<path fill="#0E0D11" opacity="1.000000" stroke="none" 
	d="
M428.591675,502.062500 
	C423.786011,494.154327 419.272186,486.394806 414.615417,478.297028 
	C431.638702,464.237579 442.262512,445.551270 453.349579,427.150452 
	C460.630341,415.066803 468.206146,403.131744 476.252106,391.548523 
	C481.638367,383.794281 487.924774,383.797821 493.745209,391.179932 
	C497.105713,395.442047 499.449097,400.506134 502.516296,405.481445 
	C508.716675,421.075348 514.651062,436.397095 520.290161,452.458099 
	C517.698547,462.660675 515.402222,472.123993 513.063599,481.994934 
	C508.625549,495.709290 502.365967,508.028137 493.609497,519.023438 
	C489.006805,522.969116 484.690216,527.336426 479.705292,530.718811 
	C476.117676,533.153137 471.638885,534.274109 467.242950,536.205078 
	C460.725861,532.833984 453.613464,530.203064 448.537750,525.413757 
	C441.211456,518.500793 435.362762,510.021912 428.591675,502.062500 
z"/>
<path fill="#0E0D11" opacity="1.000000" stroke="none" 
	d="
M379.387268,481.967926 
	C364.586639,485.668732 349.882965,486.659546 333.733276,485.827759 
	C345.948059,479.335297 351.429047,468.018738 358.998596,458.526489 
	C360.553070,456.577179 362.192413,454.684845 363.911560,452.879486 
	C370.082825,446.398682 377.044922,445.771759 382.875122,452.525604 
	C388.362488,458.882202 392.494751,466.408630 397.357117,473.776978 
	C391.560547,476.685394 385.630096,479.237213 379.387268,481.967926 
z"/>
<path fill="#0E0D11" opacity="1.000000" stroke="none" 
	d="
M452.323608,400.932190 
	C452.321869,400.494049 452.621521,399.898468 453.242645,399.135284 
	C453.251099,399.570038 452.938049,400.172394 452.323608,400.932190 
z"/>
<path fill="#0E0D11" opacity="1.000000" stroke="none" 
	d="
M451.382935,402.124512 
	C451.204285,401.763489 451.330444,401.397156 451.774536,401.024200 
	C451.957581,401.384796 451.822632,401.751984 451.382935,402.124512 
z"/>
<path fill="#0E0D11" opacity="1.000000" stroke="none" 
	d="
M558.941528,511.478088 
	C552.289917,517.944885 545.375305,524.173584 538.236816,530.635315 
	C531.859375,533.739441 525.914673,537.271912 519.494446,539.297485 
	C512.943359,541.364258 505.925049,541.950500 498.688263,543.202576 
	C494.561523,543.220215 490.857788,543.220215 486.517334,543.220215 
	C491.839996,537.333069 496.415649,532.272156 501.280151,526.673828 
	C511.919067,514.049255 519.320251,500.384216 523.823486,484.814331 
	C525.462708,480.666229 526.842407,476.733551 528.222046,472.800842 
	C531.264832,478.645081 534.158020,484.573425 537.386841,490.313019 
	C541.793457,498.146301 546.589539,505.724396 555.045898,509.937408 
	C556.189270,510.507080 557.464417,510.812286 558.941528,511.478088 
z"/>
<path fill="#3A4692" opacity="1.000000" stroke="none" 
	d="
M528.156128,472.422577 
	C526.842407,476.733551 525.462708,480.666229 523.485718,484.599121 
	C519.627563,483.595306 516.366699,482.591309 513.105835,481.587311 
	C515.402222,472.123993 517.698547,462.660675 520.250488,452.835083 
	C523.034058,458.996643 525.562073,465.520477 528.156128,472.422577 
z"/>
<path fill="#9DD2A9" opacity="1.000000" stroke="none" 
	d="
M513.063599,481.994934 
	C516.366699,482.591309 519.627563,483.595306 523.226196,484.814514 
	C519.320251,500.384216 511.919067,514.049255 501.286316,526.352844 
	C498.708710,524.217407 496.413849,521.865540 493.864258,519.268555 
	C502.365967,508.028137 508.625549,495.709290 513.063599,481.994934 
z"/>
</svg>